{
  "asset": {
    "version": "2.0",
    "generator": "THREE.GLTFExporter"
  },
  "scenes": [
    {
      "nodes": [
        0
      ]
    }
  ],
  "scene": 0,
  "nodes": [
    {
      "children": [
        12
      ],
      "matrix": [
        0.01,
        0,
        0,
        0,
        0,
        0.01,
        0,
        0,
        0,
        0,
        0.01,
        0,
        0,
        0,
        0,
        1
      ]
    },
    {
      "matrix": [
        -0.6114094440509144,
        -6.395587019766674e-17,
        -3.893676035961831e-17,
        0,
        4.301746462350281e-17,
        -0.3000346248894159,
        -0.18266308085248062,
        0,
        0,
        -0.10713551166967922,
        0.17597624493209832,
        0,
        0.47722166657359827,
        -26.17643778327747,
        48.26656021955562,
        1.0000000000000004
      ],
      "name": "smile",
      "mesh": 0
    },
    {
      "matrix": [
        -0.828840388232035,
        0.7213532990355567,
        -0.4211854485746763,
        0,
        0.7710333857720378,
        0.888934793620786,
        0.005157906594449167,
        0,
        -0.32133359946547513,
        0.2723389504754138,
        1.0987722089649328,
        0,
        -12.781315164238045,
        14.733161449991975,
        49.85020597189735,
        1.0000000000000002
      ],
      "name": "Cube 2",
      "mesh": 1
    },
    {
      "matrix": [
        0.857786976431321,
        0.7457837023542788,
        -0.304519828012431,
        0,
        -0.7710333857720383,
        0.8889347936207863,
        0.005157906594449167,
        0,
        0.2333091819343628,
        0.19576964851139672,
        1.1366464813793296,
        0,
        9.6995506343884,
        13.729326893486313,
        49.961293306473934,
        1.0000000000000004
      ],
      "name": "Cube 2",
      "mesh": 2
    },
    {
      "matrix": [
        1.1569104694129948,
        -0.01875009896162597,
        -0.2143146118133364,
        0,
        3.661507184930742e-18,
        1.172265165230048,
        -0.10255991260397358,
        0,
        0.21513325881362927,
        0.10083139125423136,
        1.1525080757960597,
        0,
        16.171045265624787,
        7.536767288530725,
        47.54320287340545,
        1.0000000000000002
      ],
      "name": "eye 2",
      "mesh": 3
    },
    {
      "matrix": [
        1.1767430277189528,
        0,
        0,
        0,
        0,
        1.1722651652300486,
        -0.1025599126039736,
        0,
        0,
        0.10255991260397347,
        1.1722651652300504,
        0,
        -19.15450938600444,
        7.47028789366965,
        46.783339913086294,
        1.0000000000000004
      ],
      "name": "eye 2",
      "mesh": 4
    },
    {
      "matrix": [
        1,
        0,
        0,
        0,
        0,
        1,
        0,
        0,
        0,
        0,
        1,
        0,
        -1.4210854715202004e-14,
        0,
        -5.14167513264081,
        1
      ],
      "name": "head",
      "mesh": 5
    },
    {
      "matrix": [
        0.67,
        0,
        0,
        0,
        0,
        0.6699999999999999,
        0,
        0,
        0,
        0,
        0.6699999999999999,
        0,
        0,
        0,
        0,
        1
      ],
      "name": "Emoji People",
      "children": [
        1,
        2,
        3,
        4,
        5,
        6
      ]
    },
    {
      "matrix": [
        0.2499977750007752,
        -0.3327859856688483,
        -0.9092604688630618,
        0,
        0.799528912318497,
        0.6006276037336289,
        0,
        0,
        0.5461269365829367,
        -0.7269800336842904,
        0.41622758169410773,
        0,
        0,
        0,
        0,
        1
      ],
      "name": "Directional Light",
      "extensions": {
        "KHR_lights_punctual": {
          "light": 0
        }
      }
    },
    {
      "matrix": [
        1,
        0,
        0,
        0,
        0,
        1,
        -5.528992390693729e-17,
        0,
        0,
        5.528992390693729e-17,
        1,
        0,
        5.110183623523046,
        17.42486470524908,
        146.46293664717442,
        1
      ],
      "name": "Camera",
      "camera": 0
    },
    {
      "matrix": [
        0.7071067811865477,
        0,
        -0.7071067811865472,
        0,
        -0.40824829046386296,
        0.816496580927726,
        -0.40824829046386313,
        0,
        0.5773502691896255,
        0.5773502691896258,
        0.5773502691896258,
        0,
        739.853100405729,
        680.2144909202873,
        698.9995029044065,
        1
      ],
      "camera": 1
    },
    {
      "matrix": [
        1,
        0,
        0,
        0,
        0,
        1,
        0,
        0,
        0,
        0,
        1,
        0,
        0,
        1,
        0,
        1
      ],
      "name": "Default Ambient Light"
    },
    {
      "name": "Scene",
      "children": [
        7,
        8,
        9,
        10,
        11
      ]
    }
  ],
  "bufferViews": [
    {
      "buffer": 0,
      "byteOffset": 0,
      "byteLength": 26112,
      "target": 34962,
      "byteStride": 12
    },
    {
      "buffer": 0,
      "byteOffset": 26112,
      "byteLength": 26112,
      "target": 34962,
      "byteStride": 12
    },
    {
      "buffer": 0,
      "byteOffset": 52224,
      "byteLength": 13056,
      "target": 34963
    },
    {
      "buffer": 0,
      "byteOffset": 65280,
      "byteLength": 3456,
      "target": 34962,
      "byteStride": 12
    },
    {
      "buffer": 0,
      "byteOffset": 68736,
      "byteLength": 3456,
      "target": 34962,
      "byteStride": 12
    },
    {
      "buffer": 0,
      "byteOffset": 72192,
      "byteLength": 1728,
      "target": 34963
    },
    {
      "buffer": 0,
      "byteOffset": 73920,
      "byteLength": 3456,
      "target": 34962,
      "byteStride": 12
    },
    {
      "buffer": 0,
      "byteOffset": 77376,
      "byteLength": 3456,
      "target": 34962,
      "byteStride": 12
    },
    {
      "buffer": 0,
      "byteOffset": 80832,
      "byteLength": 1728,
      "target": 34963
    },
    {
      "buffer": 0,
      "byteOffset": 82560,
      "byteLength": 2688,
      "target": 34962,
      "byteStride": 12
    },
    {
      "buffer": 0,
      "byteOffset": 85248,
      "byteLength": 2688,
      "target": 34962,
      "byteStride": 12
    },
    {
      "buffer": 0,
      "byteOffset": 87936,
      "byteLength": 1344,
      "target": 34963
    },
    {
      "buffer": 0,
      "byteOffset": 89280,
      "byteLength": 2688,
      "target": 34962,
      "byteStride": 12
    },
    {
      "buffer": 0,
      "byteOffset": 91968,
      "byteLength": 2688,
      "target": 34962,
      "byteStride": 12
    },
    {
      "buffer": 0,
      "byteOffset": 94656,
      "byteLength": 1344,
      "target": 34963
    },
    {
      "buffer": 0,
      "byteOffset": 96000,
      "byteLength": 2700,
      "target": 34962,
      "byteStride": 12
    },
    {
      "buffer": 0,
      "byteOffset": 98700,
      "byteLength": 2700,
      "target": 34962,
      "byteStride": 12
    },
    {
      "buffer": 0,
      "byteOffset": 101400,
      "byteLength": 1800,
      "target": 34962,
      "byteStride": 8
    },
    {
      "buffer": 0,
      "byteOffset": 103200,
      "byteLength": 2184,
      "target": 34963
    }
  ],
  "buffers": [
    {
      "byteLength": 105384,
      "uri": "data:application/octet-stream;base64,"
    }
  ],
  "accessors": [
    {
      "bufferView": 0,
      "componentType": 5126,
      "count": 2176,
      "max": [
        29.02602195739746,
        15.198086738586426,
        0.5288501381874084
      ],
      "min": [
        -29.02602195739746,
        -11.967509269714355,
        -14.448894500732422
      ],
      "type": "VEC3"
    },
    {
      "bufferView": 1,
      "componentType": 5126,
      "count": 2176,
      "max": [
        0.9983710646629333,
        0.9994648098945618,
        0.9961419105529785
      ],
      "min": [
        -0.9983711242675781,
        -0.9961761236190796,
        -0.9947283267974854
      ],
      "type": "VEC3"
    },
    {
      "bufferView": 2,
      "componentType": 5125,
      "count": 3264,
      "max": [
        2175
      ],
      "min": [
        0
      ],
      "type": "SCALAR"
    },
    {
      "bufferView": 3,
      "componentType": 5126,
      "count": 288,
      "max": [
        23.37188148498535,
        2.8831090927124023,
        2.5
      ],
      "min": [
        -2.5,
        -9.997157096862793,
        -2.5
      ],
      "type": "VEC3"
    },
    {
      "bufferView": 4,
      "componentType": 5126,
      "count": 288,
      "max": [
        0.9861389398574829,
        0.9991744756698608,
        0.9999999403953552
      ],
      "min": [
        -0.9998766779899597,
        -0.9999762773513794,
        -0.9999999403953552
      ],
      "type": "VEC3"
    },
    {
      "bufferView": 5,
      "componentType": 5125,
      "count": 432,
      "max": [
        287
      ],
      "min": [
        0
      ],
      "type": "SCALAR"
    },
    {
      "bufferView": 6,
      "componentType": 5126,
      "count": 288,
      "max": [
        23.37188148498535,
        2.8831090927124023,
        2.5
      ],
      "min": [
        -2.5,
        -9.997157096862793,
        -2.5
      ],
      "type": "VEC3"
    },
    {
      "bufferView": 7,
      "componentType": 5126,
      "count": 288,
      "max": [
        0.9861389398574829,
        0.9991744756698608,
        0.9999999403953552
      ],
      "min": [
        -0.9998766779899597,
        -0.9999762773513794,
        -0.9999999403953552
      ],
      "type": "VEC3"
    },
    {
      "bufferView": 8,
      "componentType": 5125,
      "count": 432,
      "max": [
        287
      ],
      "min": [
        0
      ],
      "type": "SCALAR"
    },
    {
      "bufferView": 9,
      "componentType": 5126,
      "count": 224,
      "max": [
        7.0199995040893555,
        9.036303520202637,
        3.0999999046325684
      ],
      "min": [
        -7.0199995040893555,
        -9.036304473876953,
        -3.0999999046325684
      ],
      "type": "VEC3"
    },
    {
      "bufferView": 10,
      "componentType": 5126,
      "count": 224,
      "max": [
        0.9999939203262329,
        1,
        0.9999988079071045
      ],
      "min": [
        -0.9999939203262329,
        -1,
        -0.9999988079071045
      ],
      "type": "VEC3"
    },
    {
      "bufferView": 11,
      "componentType": 5125,
      "count": 336,
      "max": [
        223
      ],
      "min": [
        0
      ],
      "type": "SCALAR"
    },
    {
      "bufferView": 12,
      "componentType": 5126,
      "count": 224,
      "max": [
        7.0199995040893555,
        9.036303520202637,
        3.0999999046325684
      ],
      "min": [
        -7.0199995040893555,
        -9.036304473876953,
        -3.0999999046325684
      ],
      "type": "VEC3"
    },
    {
      "bufferView": 13,
      "componentType": 5126,
      "count": 224,
      "max": [
        0.9999939203262329,
        1,
        0.9999988079071045
      ],
      "min": [
        -0.9999939203262329,
        -1,
        -0.9999988079071045
      ],
      "type": "VEC3"
    },
    {
      "bufferView": 14,
      "componentType": 5125,
      "count": 336,
      "max": [
        223
      ],
      "min": [
        0
      ],
      "type": "SCALAR"
    },
    {
      "bufferView": 15,
      "componentType": 5126,
      "count": 225,
      "max": [
        56.5,
        56.5,
        55.08342742919922
      ],
      "min": [
        -56.5,
        -56.5,
        -55.08342742919922
      ],
      "type": "VEC3"
    },
    {
      "bufferView": 16,
      "componentType": 5126,
      "count": 225,
      "max": [
        1,
        1,
        0.9749279022216797
      ],
      "min": [
        -1,
        -1,
        -0.9749279022216797
      ],
      "type": "VEC3"
    },
    {
      "bufferView": 17,
      "componentType": 5126,
      "count": 225,
      "max": [
        1.0357142686843872,
        1
      ],
      "min": [
        -0.0357142873108387,
        0
      ],
      "type": "VEC2"
    },
    {
      "bufferView": 18,
      "componentType": 5123,
      "count": 1092,
      "max": [
        224
      ],
      "min": [
        0
      ],
      "type": "SCALAR"
    }
  ],
  "meshes": [
    {
      "primitives": [
        {
          "mode": 4,
          "attributes": {
            "POSITION": 0,
            "NORMAL": 1
          },
          "extras": {
            "type": "SubdivGeometry",
            "parameters": {
              "width": 59.774627685546875,
              "height": 29.180624961853027,
              "depth": 19.039199352264404
            }
          },
          "indices": 2
        }
      ]
    },
    {
      "primitives": [
        {
          "mode": 4,
          "attributes": {
            "POSITION": 3,
            "NORMAL": 4
          },
          "extras": {
            "type": "SubdivGeometry",
            "parameters": {
              "width": 26.6729736328125,
              "height": 13.929918766021729,
              "depth": 5
            }
          },
          "indices": 5
        }
      ]
    },
    {
      "primitives": [
        {
          "mode": 4,
          "attributes": {
            "POSITION": 6,
            "NORMAL": 7
          },
          "extras": {
            "type": "SubdivGeometry",
            "parameters": {
              "width": 26.6729736328125,
              "height": 13.929918766021729,
              "depth": 5
            }
          },
          "indices": 8
        }
      ]
    },
    {
      "primitives": [
        {
          "mode": 4,
          "attributes": {
            "POSITION": 9,
            "NORMAL": 10
          },
          "extras": {
            "type": "SubdivGeometry",
            "parameters": {
              "width": 14.039999008178711,
              "height": 18.07260799407959,
              "depth": 6.199999809265137
            }
          },
          "indices": 11
        }
      ]
    },
    {
      "primitives": [
        {
          "mode": 4,
          "attributes": {
            "POSITION": 12,
            "NORMAL": 13
          },
          "extras": {
            "type": "SubdivGeometry",
            "parameters": {
              "width": 14.039999008178711,
              "height": 18.07260799407959,
              "depth": 6.199999809265137
            }
          },
          "indices": 14
        }
      ]
    },
    {
      "primitives": [
        {
          "mode": 4,
          "attributes": {
            "POSITION": 15,
            "NORMAL": 16,
            "TEXCOORD_0": 17
          },
          "extras": {
            "parameters": {
              "width": 113,
              "widthSegments": 14,
              "heightSegments": 14,
              "phiStart": 0,
              "phiLength": 6.283185307179586,
              "thetaStart": 0,
              "thetaLength": 180,
              "height": 113,
              "depth": 113,
              "type": "SphereGeometry"
            },
            "type": "SphereGeometry"
          },
          "indices": 18
        }
      ]
    }
  ],
  "extensions": {
    "KHR_lights_punctual": {
      "lights": [
        {
          "name": "Directional Light",
          "color": [
            1,
            1,
            1
          ],
          "intensity": 0.7,
          "type": "directional"
        }
      ]
    }
  },
  "cameras": [
    {
      "type": "perspective",
      "perspective": {
        "aspectRatio": 1.1393805309734513,
        "yfov": 0.7853981633974483,
        "zfar": 100000,
        "znear": 70
      },
      "name": "Camera"
    },
    {
      "type": "perspective",
      "perspective": {
        "aspectRatio": 1.1393805309734513,
        "yfov": 0.7853981633974483,
        "zfar": 100000,
        "znear": 5
      }
    }
  ],
  "extensionsUsed": [
    "KHR_lights_punctual"
  ]
}