{
  "asset": {
    "version": "2.0",
    "generator": "THREE.GLTFExporter"
  },
  "scenes": [
    {
      "nodes": [
        0
      ]
    }
  ],
  "scene": 0,
  "nodes": [
    {
      "children": [
        10
      ],
      "matrix": [
        0.01,
        0,
        0,
        0,
        0,
        0.01,
        0,
        0,
        0,
        0,
        0.01,
        0,
        0,
        0,
        0,
        1
      ]
    },
    {
      "matrix": [
        -0.7170790897473792,
        -7.500933724786453e-17,
        -4.5666184825993426e-17,
        0,
        2.8209637432918847e-17,
        -0.19675422667350673,
        -0.11978528554221507,
        0,
        -3.0975535219860144e-33,
        -0.1256516986043084,
        0.20639014781486217,
        0,
        0.4772216665736265,
        -24.645358230691535,
        52.46840678260486,
        1
      ],
      "name": "smile",
      "mesh": 0
    },
    {
      "matrix": [
        -1.176405423258236,
        0.020039634968136266,
        0.01982035428839772,
        0,
        0.01985278633806649,
        0.0017368937439837953,
        1.176574265977246,
        0,
        -0.020007505801293513,
        -1.1765710983683186,
        0.0020744833441615346,
        0,
        -10.389286557938867,
        11.090872315760855,
        52.99635918249978,
        0.9999999999999999
      ],
      "name": "Cube 2",
      "mesh": 1
    },
    {
      "matrix": [
        1.176574265977248,
        4.440892098500626e-16,
        0.019928620756660752,
        0,
        -0.019928620756660725,
        3.86843335142828e-16,
        1.176574265977246,
        0,
        -4.996003610813204e-16,
        -1.1767430277189523,
        3.1629608601558727e-16,
        0,
        10.837575333636776,
        11.346548648515238,
        54.18763673281867,
        0.9999999999999999
      ],
      "name": "Cube 2",
      "mesh": 2
    },
    {
      "matrix": [
        1,
        0,
        0,
        0,
        0,
        1,
        0,
        0,
        0,
        0,
        1,
        0,
        0,
        0,
        -1.871960013449634,
        1
      ],
      "name": "head",
      "mesh": 3
    },
    {
      "matrix": [
        0.66,
        0,
        0,
        0,
        0,
        0.6599999999999999,
        0,
        0,
        0,
        0,
        0.6599999999999999,
        0,
        0,
        0,
        0,
        1
      ],
      "name": "Emoji People",
      "children": [
        1,
        2,
        3,
        4
      ]
    },
    {
      "matrix": [
        0.2499977750007752,
        -0.3327859856688483,
        -0.9092604688630618,
        0,
        0.799528912318497,
        0.6006276037336289,
        0,
        0,
        0.5461269365829367,
        -0.7269800336842904,
        0.41622758169410773,
        0,
        0,
        0,
        0,
        1
      ],
      "name": "Directional Light",
      "extensions": {
        "KHR_lights_punctual": {
          "light": 0
        }
      }
    },
    {
      "matrix": [
        1,
        0,
        0,
        0,
        0,
        1,
        -5.528992390693729e-17,
        0,
        0,
        5.528992390693729e-17,
        1,
        0,
        5.110183623523046,
        17.42486470524908,
        146.46293664717442,
        1
      ],
      "name": "Camera",
      "camera": 0
    },
    {
      "matrix": [
        0.7071067811865477,
        0,
        -0.7071067811865472,
        0,
        -0.40824829046386296,
        0.816496580927726,
        -0.40824829046386313,
        0,
        0.5773502691896255,
        0.5773502691896258,
        0.5773502691896258,
        0,
        739.853100405729,
        680.2144909202873,
        698.9995029044065,
        1
      ],
      "camera": 1
    },
    {
      "matrix": [
        1,
        0,
        0,
        0,
        0,
        1,
        0,
        0,
        0,
        0,
        1,
        0,
        0,
        1,
        0,
        1
      ],
      "name": "Default Ambient Light"
    },
    {
      "name": "Scene",
      "children": [
        5,
        6,
        7,
        8,
        9
      ]
    }
  ],
  "bufferViews": [
    {
      "buffer": 0,
      "byteOffset": 0,
      "byteLength": 26112,
      "target": 34962,
      "byteStride": 12
    },
    {
      "buffer": 0,
      "byteOffset": 26112,
      "byteLength": 26112,
      "target": 34962,
      "byteStride": 12
    },
    {
      "buffer": 0,
      "byteOffset": 52224,
      "byteLength": 13056,
      "target": 34963
    },
    {
      "buffer": 0,
      "byteOffset": 65280,
      "byteLength": 3456,
      "target": 34962,
      "byteStride": 12
    },
    {
      "buffer": 0,
      "byteOffset": 68736,
      "byteLength": 3456,
      "target": 34962,
      "byteStride": 12
    },
    {
      "buffer": 0,
      "byteOffset": 72192,
      "byteLength": 1728,
      "target": 34963
    },
    {
      "buffer": 0,
      "byteOffset": 73920,
      "byteLength": 3456,
      "target": 34962,
      "byteStride": 12
    },
    {
      "buffer": 0,
      "byteOffset": 77376,
      "byteLength": 3456,
      "target": 34962,
      "byteStride": 12
    },
    {
      "buffer": 0,
      "byteOffset": 80832,
      "byteLength": 1728,
      "target": 34963
    },
    {
      "buffer": 0,
      "byteOffset": 82560,
      "byteLength": 2700,
      "target": 34962,
      "byteStride": 12
    },
    {
      "buffer": 0,
      "byteOffset": 85260,
      "byteLength": 2700,
      "target": 34962,
      "byteStride": 12
    },
    {
      "buffer": 0,
      "byteOffset": 87960,
      "byteLength": 1800,
      "target": 34962,
      "byteStride": 8
    },
    {
      "buffer": 0,
      "byteOffset": 89760,
      "byteLength": 2184,
      "target": 34963
    }
  ],
  "buffers": [
    {
      "byteLength": 91944,
      "uri": "data:application/octet-stream;base64,"
    }
  ],
  "accessors": [
    {
      "bufferView": 0,
      "componentType": 5126,
      "count": 2176,
      "max": [
        22.318801879882812,
        15.198086738586426,
        0.5288501381874084
      ],
      "min": [
        -22.318801879882812,
        -11.967509269714355,
        -14.448894500732422
      ],
      "type": "VEC3"
    },
    {
      "bufferView": 1,
      "componentType": 5126,
      "count": 2176,
      "max": [
        0.9990327954292297,
        0.9994638562202454,
        0.9961419105529785
      ],
      "min": [
        -0.9990326166152954,
        -0.99617999792099,
        -0.9940083622932434
      ],
      "type": "VEC3"
    },
    {
      "bufferView": 2,
      "componentType": 5125,
      "count": 3264,
      "max": [
        2175
      ],
      "min": [
        0
      ],
      "type": "SCALAR"
    },
    {
      "bufferView": 3,
      "componentType": 5126,
      "count": 288,
      "max": [
        23.37188148498535,
        2.8831090927124023,
        2.5
      ],
      "min": [
        -2.5,
        -9.997157096862793,
        -2.5
      ],
      "type": "VEC3"
    },
    {
      "bufferView": 4,
      "componentType": 5126,
      "count": 288,
      "max": [
        0.9861389398574829,
        0.9991744756698608,
        0.9999999403953552
      ],
      "min": [
        -0.9998766779899597,
        -0.9999762773513794,
        -0.9999999403953552
      ],
      "type": "VEC3"
    },
    {
      "bufferView": 5,
      "componentType": 5125,
      "count": 432,
      "max": [
        287
      ],
      "min": [
        0
      ],
      "type": "SCALAR"
    },
    {
      "bufferView": 6,
      "componentType": 5126,
      "count": 288,
      "max": [
        23.37188148498535,
        2.8831090927124023,
        2.5
      ],
      "min": [
        -2.5,
        -9.997157096862793,
        -2.5
      ],
      "type": "VEC3"
    },
    {
      "bufferView": 7,
      "componentType": 5126,
      "count": 288,
      "max": [
        0.9861389398574829,
        0.9991744756698608,
        0.9999999403953552
      ],
      "min": [
        -0.9998766779899597,
        -0.9999762773513794,
        -0.9999999403953552
      ],
      "type": "VEC3"
    },
    {
      "bufferView": 8,
      "componentType": 5125,
      "count": 432,
      "max": [
        287
      ],
      "min": [
        0
      ],
      "type": "SCALAR"
    },
    {
      "bufferView": 9,
      "componentType": 5126,
      "count": 225,
      "max": [
        56.5,
        56.5,
        55.08342742919922
      ],
      "min": [
        -56.5,
        -56.5,
        -55.08342742919922
      ],
      "type": "VEC3"
    },
    {
      "bufferView": 10,
      "componentType": 5126,
      "count": 225,
      "max": [
        1,
        1,
        0.9749279022216797
      ],
      "min": [
        -1,
        -1,
        -0.9749279022216797
      ],
      "type": "VEC3"
    },
    {
      "bufferView": 11,
      "componentType": 5126,
      "count": 225,
      "max": [
        1.0357142686843872,
        1
      ],
      "min": [
        -0.0357142873108387,
        0
      ],
      "type": "VEC2"
    },
    {
      "bufferView": 12,
      "componentType": 5123,
      "count": 1092,
      "max": [
        224
      ],
      "min": [
        0
      ],
      "type": "SCALAR"
    }
  ],
  "meshes": [
    {
      "primitives": [
        {
          "mode": 4,
          "attributes": {
            "POSITION": 0,
            "NORMAL": 1
          },
          "extras": {
            "type": "SubdivGeometry",
            "parameters": {
              "width": 45.96213912963867,
              "height": 29.180624961853027,
              "depth": 19.039199352264404
            }
          },
          "indices": 2
        }
      ]
    },
    {
      "primitives": [
        {
          "mode": 4,
          "attributes": {
            "POSITION": 3,
            "NORMAL": 4
          },
          "extras": {
            "type": "SubdivGeometry",
            "parameters": {
              "width": 26.6729736328125,
              "height": 13.929918766021729,
              "depth": 5
            }
          },
          "indices": 5
        }
      ]
    },
    {
      "primitives": [
        {
          "mode": 4,
          "attributes": {
            "POSITION": 6,
            "NORMAL": 7
          },
          "extras": {
            "type": "SubdivGeometry",
            "parameters": {
              "width": 26.6729736328125,
              "height": 13.929918766021729,
              "depth": 5
            }
          },
          "indices": 8
        }
      ]
    },
    {
      "primitives": [
        {
          "mode": 4,
          "attributes": {
            "POSITION": 9,
            "NORMAL": 10,
            "TEXCOORD_0": 11
          },
          "extras": {
            "parameters": {
              "width": 113,
              "widthSegments": 14,
              "heightSegments": 14,
              "phiStart": 0,
              "phiLength": 6.283185307179586,
              "thetaStart": 0,
              "thetaLength": 180,
              "height": 113,
              "depth": 113,
              "type": "SphereGeometry"
            },
            "type": "SphereGeometry"
          },
          "indices": 12
        }
      ]
    }
  ],
  "extensions": {
    "KHR_lights_punctual": {
      "lights": [
        {
          "name": "Directional Light",
          "color": [
            1,
            1,
            1
          ],
          "intensity": 0.7,
          "type": "directional"
        }
      ]
    }
  },
  "cameras": [
    {
      "type": "perspective",
      "perspective": {
        "aspectRatio": 1.1393805309734513,
        "yfov": 0.7853981633974483,
        "zfar": 100000,
        "znear": 70
      },
      "name": "Camera"
    },
    {
      "type": "perspective",
      "perspective": {
        "aspectRatio": 1.1393805309734513,
        "yfov": 0.7853981633974483,
        "zfar": 100000,
        "znear": 5
      }
    }
  ],
  "extensionsUsed": [
    "KHR_lights_punctual"
  ]
}