{
  "asset": {
    "version": "2.0",
    "generator": "THREE.GLTFExporter"
  },
  "scenes": [
    {
      "nodes": [
        0
      ]
    }
  ],
  "scene": 0,
  "nodes": [
    {
      "children": [
        11
      ],
      "matrix": [
        0.01,
        0,
        0,
        0,
        0,
        0.01,
        0,
        0,
        0,
        0,
        0.01,
        0,
        0,
        0,
        0,
        1
      ]
    },
    {
      "matrix": [
        0.711033759830791,
        0,
        0,
        0,
        0,
        0.7110337598307911,
        0,
        0,
        0,
        0,
        0.7110337598307905,
        0,
        -0.04909456555504478,
        -13.503939690707286,
        30.930830623665113,
        1.0000000000000004
      ],
      "name": "Cube 4",
      "mesh": 0
    },
    {
      "matrix": [
        0.711033759830791,
        0,
        0,
        0,
        0,
        0.7110337598307911,
        0,
        0,
        0,
        0,
        0.7110337598307905,
        0,
        0.24071496468546277,
        -16.34807473003044,
        31.20314901776607,
        1.0000000000000004
      ],
      "name": "Cube 3",
      "mesh": 1
    },
    {
      "matrix": [
        -0.6309733750138459,
        0.16283390941426465,
        -0.28447623026821245,
        0,
        0.11548794008549831,
        0.6879597768171676,
        0.1376331674981974,
        0,
        -0.30676398637642255,
        -0.07593069896718847,
        0.6369453612641406,
        0,
        -6.437063650637902,
        4.352583533282928,
        32.043548785154,
        0.9999999999999999
      ],
      "name": "Cube 2",
      "mesh": 2
    },
    {
      "matrix": [
        0.6213866543597821,
        0.17073334929841144,
        -0.3004958516186424,
        0,
        -0.18838340764637718,
        0.6856243135585615,
        -3.547894584280831e-17,
        0,
        0.2897573556032793,
        0.07961426828030158,
        0.6444154333805915,
        0,
        5.488945333502124,
        4.352583533282924,
        32.04354878515401,
        1
      ],
      "name": "Cube",
      "mesh": 3
    },
    {
      "matrix": [
        0.711033759830791,
        0,
        0,
        0,
        0,
        0.7110337598307911,
        0,
        0,
        0,
        0,
        0.7110337598307905,
        0,
        7.105427357601003e-15,
        -7.105427357601003e-15,
        -1.653690421005593,
        1.0000000000000004
      ],
      "name": "Sphere",
      "mesh": 4
    },
    {
      "name": "Emoji People",
      "children": [
        1,
        2,
        3,
        4,
        5
      ]
    },
    {
      "matrix": [
        0.2499977750007752,
        -0.3327859856688483,
        -0.9092604688630618,
        0,
        0.799528912318497,
        0.6006276037336289,
        0,
        0,
        0.5461269365829367,
        -0.7269800336842904,
        0.41622758169410773,
        0,
        0,
        0,
        0,
        1
      ],
      "name": "Directional Light",
      "extensions": {
        "KHR_lights_punctual": {
          "light": 0
        }
      }
    },
    {
      "matrix": [
        1,
        0,
        0,
        0,
        0,
        1,
        -6.26091884685771e-17,
        0,
        0,
        6.26091884685771e-17,
        1,
        0,
        6.287871193856687,
        21.193464930316757,
        415.1650985402902,
        1
      ],
      "name": "Camera",
      "camera": 0
    },
    {
      "matrix": [
        0.7071067811865477,
        0,
        -0.7071067811865472,
        0,
        -0.40824829046386296,
        0.816496580927726,
        -0.40824829046386313,
        0,
        0.5773502691896255,
        0.5773502691896258,
        0.5773502691896258,
        0,
        739.853100405729,
        680.2144909202873,
        698.9995029044065,
        1
      ],
      "camera": 1
    },
    {
      "matrix": [
        1,
        0,
        0,
        0,
        0,
        1,
        0,
        0,
        0,
        0,
        1,
        0,
        0,
        1,
        0,
        1
      ],
      "name": "Default Ambient Light"
    },
    {
      "name": "Scene",
      "children": [
        6,
        7,
        8,
        9,
        10
      ]
    }
  ],
  "bufferViews": [
    {
      "buffer": 0,
      "byteOffset": 0,
      "byteLength": 4224,
      "target": 34962,
      "byteStride": 12
    },
    {
      "buffer": 0,
      "byteOffset": 4224,
      "byteLength": 4224,
      "target": 34962,
      "byteStride": 12
    },
    {
      "buffer": 0,
      "byteOffset": 8448,
      "byteLength": 2112,
      "target": 34963
    },
    {
      "buffer": 0,
      "byteOffset": 10560,
      "byteLength": 6528,
      "target": 34962,
      "byteStride": 12
    },
    {
      "buffer": 0,
      "byteOffset": 17088,
      "byteLength": 6528,
      "target": 34962,
      "byteStride": 12
    },
    {
      "buffer": 0,
      "byteOffset": 23616,
      "byteLength": 3264,
      "target": 34963
    },
    {
      "buffer": 0,
      "byteOffset": 26880,
      "byteLength": 5760,
      "target": 34962,
      "byteStride": 12
    },
    {
      "buffer": 0,
      "byteOffset": 32640,
      "byteLength": 5760,
      "target": 34962,
      "byteStride": 12
    },
    {
      "buffer": 0,
      "byteOffset": 38400,
      "byteLength": 2880,
      "target": 34963
    },
    {
      "buffer": 0,
      "byteOffset": 41280,
      "byteLength": 5760,
      "target": 34962,
      "byteStride": 12
    },
    {
      "buffer": 0,
      "byteOffset": 47040,
      "byteLength": 5760,
      "target": 34962,
      "byteStride": 12
    },
    {
      "buffer": 0,
      "byteOffset": 52800,
      "byteLength": 2880,
      "target": 34963
    },
    {
      "buffer": 0,
      "byteOffset": 55680,
      "byteLength": 2700,
      "target": 34962,
      "byteStride": 12
    },
    {
      "buffer": 0,
      "byteOffset": 58380,
      "byteLength": 2700,
      "target": 34962,
      "byteStride": 12
    },
    {
      "buffer": 0,
      "byteOffset": 61080,
      "byteLength": 1800,
      "target": 34962,
      "byteStride": 8
    },
    {
      "buffer": 0,
      "byteOffset": 62880,
      "byteLength": 2184,
      "target": 34963
    }
  ],
  "buffers": [
    {
      "byteLength": 65064,
      "uri": "data:application/octet-stream;base64,"
    }
  ],
  "accessors": [
    {
      "bufferView": 0,
      "componentType": 5126,
      "count": 352,
      "max": [
        23.388351440429688,
        6.0500946044921875,
        2.5423619747161865
      ],
      "min": [
        -23.647432327270508,
        -4.8797607421875,
        -4.38713264465332
      ],
      "type": "VEC3"
    },
    {
      "bufferView": 1,
      "componentType": 5126,
      "count": 352,
      "max": [
        0.9960695505142212,
        0.995883584022522,
        0.9676678776741028
      ],
      "min": [
        -0.9964069128036499,
        -0.9952969551086426,
        -0.9836900234222412
      ],
      "type": "VEC3"
    },
    {
      "bufferView": 2,
      "componentType": 5125,
      "count": 528,
      "max": [
        351
      ],
      "min": [
        0
      ],
      "type": "SCALAR"
    },
    {
      "bufferView": 3,
      "componentType": 5126,
      "count": 544,
      "max": [
        29.34374237060547,
        15.493148803710938,
        0.9151010513305664
      ],
      "min": [
        -29.34374237060547,
        -12.675665855407715,
        -14.984198570251465
      ],
      "type": "VEC3"
    },
    {
      "bufferView": 4,
      "componentType": 5126,
      "count": 544,
      "max": [
        0.9890416860580444,
        0.9957063794136047,
        0.9736968278884888
      ],
      "min": [
        -0.9890418648719788,
        -0.9654189944267273,
        -0.9987776875495911
      ],
      "type": "VEC3"
    },
    {
      "bufferView": 5,
      "componentType": 5125,
      "count": 816,
      "max": [
        543
      ],
      "min": [
        0
      ],
      "type": "SCALAR"
    },
    {
      "bufferView": 6,
      "componentType": 5126,
      "count": 480,
      "max": [
        27.041683197021484,
        5.917973518371582,
        2.9424359798431396
      ],
      "min": [
        -2.8180289268493652,
        -16.682270050048828,
        -1.8107571601867676
      ],
      "type": "VEC3"
    },
    {
      "bufferView": 7,
      "componentType": 5126,
      "count": 480,
      "max": [
        0.9882113337516785,
        0.9979164600372314,
        0.999982476234436
      ],
      "min": [
        -0.9954013824462891,
        -0.9999115467071533,
        -0.9998874068260193
      ],
      "type": "VEC3"
    },
    {
      "bufferView": 8,
      "componentType": 5125,
      "count": 720,
      "max": [
        479
      ],
      "min": [
        0
      ],
      "type": "SCALAR"
    },
    {
      "bufferView": 9,
      "componentType": 5126,
      "count": 480,
      "max": [
        27.041683197021484,
        5.917973518371582,
        2.9424359798431396
      ],
      "min": [
        -2.8180289268493652,
        -16.682270050048828,
        -1.8107571601867676
      ],
      "type": "VEC3"
    },
    {
      "bufferView": 10,
      "componentType": 5126,
      "count": 480,
      "max": [
        0.9882113337516785,
        0.9979164600372314,
        0.999982476234436
      ],
      "min": [
        -0.9954013824462891,
        -0.9999115467071533,
        -0.9998874068260193
      ],
      "type": "VEC3"
    },
    {
      "bufferView": 11,
      "componentType": 5125,
      "count": 720,
      "max": [
        479
      ],
      "min": [
        0
      ],
      "type": "SCALAR"
    },
    {
      "bufferView": 12,
      "componentType": 5126,
      "count": 225,
      "max": [
        48,
        48,
        46.796539306640625
      ],
      "min": [
        -48,
        -48,
        -46.796539306640625
      ],
      "type": "VEC3"
    },
    {
      "bufferView": 13,
      "componentType": 5126,
      "count": 225,
      "max": [
        1,
        1,
        0.9749279022216797
      ],
      "min": [
        -1,
        -1,
        -0.9749279022216797
      ],
      "type": "VEC3"
    },
    {
      "bufferView": 14,
      "componentType": 5126,
      "count": 225,
      "max": [
        1.0357142686843872,
        1
      ],
      "min": [
        -0.0357142873108387,
        0
      ],
      "type": "VEC2"
    },
    {
      "bufferView": 15,
      "componentType": 5123,
      "count": 1092,
      "max": [
        224
      ],
      "min": [
        0
      ],
      "type": "SCALAR"
    }
  ],
  "meshes": [
    {
      "primitives": [
        {
          "mode": 4,
          "attributes": {
            "POSITION": 0,
            "NORMAL": 1
          },
          "extras": {
            "type": "SubdivGeometry",
            "parameters": {
              "width": 48.103681564331055,
              "height": 11.630506038665771,
              "depth": 8.473178625106812
            }
          },
          "indices": 2
        }
      ]
    },
    {
      "primitives": [
        {
          "mode": 4,
          "attributes": {
            "POSITION": 3,
            "NORMAL": 4
          },
          "extras": {
            "type": "SubdivGeometry",
            "parameters": {
              "width": 59.774627685546875,
              "height": 29.180624961853027,
              "depth": 19.039199352264404
            }
          },
          "indices": 5
        }
      ]
    },
    {
      "primitives": [
        {
          "mode": 4,
          "attributes": {
            "POSITION": 6,
            "NORMAL": 7
          },
          "extras": {
            "type": "SubdivGeometry",
            "parameters": {
              "width": 30.799777030944824,
              "height": 24.256382942199707,
              "depth": 5.66827130317688
            }
          },
          "indices": 8
        }
      ]
    },
    {
      "primitives": [
        {
          "mode": 4,
          "attributes": {
            "POSITION": 9,
            "NORMAL": 10
          },
          "extras": {
            "type": "SubdivGeometry",
            "parameters": {
              "width": 30.799777030944824,
              "height": 24.256382942199707,
              "depth": 5.66827130317688
            }
          },
          "indices": 11
        }
      ]
    },
    {
      "primitives": [
        {
          "mode": 4,
          "attributes": {
            "POSITION": 12,
            "NORMAL": 13,
            "TEXCOORD_0": 14
          },
          "extras": {
            "parameters": {
              "width": 96,
              "widthSegments": 14,
              "heightSegments": 14,
              "phiStart": 0,
              "phiLength": 6.283185307179586,
              "thetaStart": 0,
              "thetaLength": 180,
              "height": 96,
              "depth": 96,
              "type": "SphereGeometry"
            },
            "type": "SphereGeometry"
          },
          "indices": 15
        }
      ]
    }
  ],
  "extensions": {
    "KHR_lights_punctual": {
      "lights": [
        {
          "name": "Directional Light",
          "color": [
            1,
            1,
            1
          ],
          "intensity": 0.7,
          "type": "directional"
        }
      ]
    }
  },
  "cameras": [
    {
      "type": "perspective",
      "perspective": {
        "aspectRatio": 1.1393805309734513,
        "yfov": 0.7853981633974483,
        "zfar": 100000,
        "znear": 70
      },
      "name": "Camera"
    },
    {
      "type": "perspective",
      "perspective": {
        "aspectRatio": 1.1393805309734513,
        "yfov": 0.7853981633974483,
        "zfar": 100000,
        "znear": 5
      }
    }
  ],
  "extensionsUsed": [
    "KHR_lights_punctual"
  ]
}