{
  "asset": {
    "version": "2.0",
    "generator": "THREE.GLTFExporter"
  },
  "scenes": [
    {
      "nodes": [
        0
      ]
    }
  ],
  "scene": 0,
  "nodes": [
    {
      "children": [
        14
      ],
      "matrix": [
        0.01,
        0,
        0,
        0,
        0,
        0.01,
        0,
        0,
        0,
        0,
        0.01,
        0,
        0,
        0,
        0,
        1
      ]
    },
    {
      "matrix": [
        0.6313128058689713,
        0,
        -0.32712864253218216,
        0,
        0,
        0.7110337598307876,
        0,
        0,
        0.3271286425321812,
        0,
        0.631312805868973,
        0,
        20.52792146180793,
        -7.611569626687121,
        27.31211411841416,
        0.9999999999999997
      ],
      "name": "Sphere 2",
      "mesh": 0
    },
    {
      "matrix": [
        0.6300742456888254,
        0,
        0.32950789450142554,
        0,
        0,
        0.7110337598307875,
        0,
        0,
        -0.3295078945014247,
        0,
        0.6300742456888271,
        0,
        -21.213579510594805,
        -7.611569626687114,
        27.237687402458775,
        1
      ],
      "name": "Sphere",
      "mesh": 1
    },
    {
      "matrix": [
        0.5829352383194407,
        0.358739727380471,
        0.19251317758415695,
        0,
        -0.32857580731308345,
        0.6130690088425382,
        -0.14749012463378247,
        0,
        -0.24040269215031365,
        0.03195631416354123,
        0.6683968485945077,
        0,
        -20.963071770308595,
        9.531457949344112,
        24.967084917666487,
        0.9999999999999999
      ],
      "name": "Cube 3",
      "mesh": 2
    },
    {
      "matrix": [
        -0.6985164243285629,
        0.04902462599018602,
        -0.12345200933506345,
        0,
        0.05014820828583147,
        0.7092600316548153,
        -0.002091009761838508,
        0,
        -0.12299987710588552,
        0.01076109486184695,
        0.700231559334779,
        0,
        -4.283032463885196,
        1.4666772387065237,
        32.764324630366445,
        1
      ],
      "name": "Cube 5",
      "mesh": 3
    },
    {
      "matrix": [
        0.6867073742215601,
        0.012041645296440522,
        -0.18400268635916414,
        0,
        -0.011631336182844104,
        0.71093178744353,
        0.0031166071370879764,
        0,
        0.18402907875505917,
        5.430537340853381e-18,
        0.6868058719839765,
        0,
        4.2325498050423285,
        1.8522761763498816,
        32.76432463036643,
        0.9999999999999994
      ],
      "name": "Cube 4",
      "mesh": 4
    },
    {
      "matrix": [
        0.6826768801555019,
        0.012041645296440136,
        -0.1984345829204431,
        0,
        -0.011563068339472396,
        0.7109317874435294,
        0.003361052219464551,
        0,
        0.19846304535311352,
        2.8027528236096243e-18,
        0.6827747998046465,
        0,
        6.135486180509329,
        13.209195667111723,
        29.703133791673,
        1.0000000000000002
      ],
      "name": "Cube 2",
      "mesh": 5
    },
    {
      "matrix": [
        0.7110337598307874,
        0,
        0,
        0,
        0,
        0.7110337598307876,
        0,
        0,
        0,
        0,
        0.7110337598307892,
        0,
        -0.2998841988313856,
        -18.33012794442,
        32.264033731131605,
        1
      ],
      "name": "Cube 3",
      "mesh": 6
    },
    {
      "matrix": [
        0.7110337598307874,
        0,
        0,
        0,
        0,
        0.7110337598307876,
        0,
        0,
        0,
        0,
        0.7110337598307892,
        0,
        -3.552713678800501e-15,
        0,
        -0.8220679521017934,
        1
      ],
      "name": "Sphere",
      "mesh": 7
    },
    {
      "name": "Emoji People",
      "children": [
        1,
        2,
        3,
        4,
        5,
        6,
        7,
        8
      ]
    },
    {
      "matrix": [
        0.2499977750007752,
        -0.3327859856688483,
        -0.9092604688630618,
        0,
        0.799528912318497,
        0.6006276037336289,
        0,
        0,
        0.5461269365829367,
        -0.7269800336842904,
        0.41622758169410773,
        0,
        0,
        0,
        0,
        1
      ],
      "name": "Directional Light",
      "extensions": {
        "KHR_lights_punctual": {
          "light": 0
        }
      }
    },
    {
      "matrix": [
        1,
        0,
        0,
        0,
        0,
        1,
        -6.260850779028328e-17,
        0,
        0,
        6.260850779028328e-17,
        1,
        0,
        6.287871193856687,
        21.193464930316757,
        415.1650985402902,
        1
      ],
      "name": "Camera",
      "camera": 0
    },
    {
      "matrix": [
        0.7071067811865477,
        0,
        -0.7071067811865472,
        0,
        -0.40824829046386296,
        0.816496580927726,
        -0.40824829046386313,
        0,
        0.5773502691896255,
        0.5773502691896258,
        0.5773502691896258,
        0,
        739.853100405729,
        680.2144909202873,
        698.9995029044065,
        1
      ],
      "camera": 1
    },
    {
      "matrix": [
        1,
        0,
        0,
        0,
        0,
        1,
        0,
        0,
        0,
        0,
        1,
        0,
        0,
        1,
        0,
        1
      ],
      "name": "Default Ambient Light"
    },
    {
      "name": "Scene",
      "children": [
        9,
        10,
        11,
        12,
        13
      ]
    }
  ],
  "bufferViews": [
    {
      "buffer": 0,
      "byteOffset": 0,
      "byteLength": 2700,
      "target": 34962,
      "byteStride": 12
    },
    {
      "buffer": 0,
      "byteOffset": 2700,
      "byteLength": 2700,
      "target": 34962,
      "byteStride": 12
    },
    {
      "buffer": 0,
      "byteOffset": 5400,
      "byteLength": 1800,
      "target": 34962,
      "byteStride": 8
    },
    {
      "buffer": 0,
      "byteOffset": 7200,
      "byteLength": 2184,
      "target": 34963
    },
    {
      "buffer": 0,
      "byteOffset": 9384,
      "byteLength": 11700,
      "target": 34962,
      "byteStride": 12
    },
    {
      "buffer": 0,
      "byteOffset": 21084,
      "byteLength": 11700,
      "target": 34962,
      "byteStride": 12
    },
    {
      "buffer": 0,
      "byteOffset": 32784,
      "byteLength": 7800,
      "target": 34962,
      "byteStride": 8
    },
    {
      "buffer": 0,
      "byteOffset": 40584,
      "byteLength": 10584,
      "target": 34963
    },
    {
      "buffer": 0,
      "byteOffset": 51168,
      "byteLength": 3456,
      "target": 34962,
      "byteStride": 12
    },
    {
      "buffer": 0,
      "byteOffset": 54624,
      "byteLength": 3456,
      "target": 34962,
      "byteStride": 12
    },
    {
      "buffer": 0,
      "byteOffset": 58080,
      "byteLength": 1728,
      "target": 34963
    },
    {
      "buffer": 0,
      "byteOffset": 59808,
      "byteLength": 1920,
      "target": 34962,
      "byteStride": 12
    },
    {
      "buffer": 0,
      "byteOffset": 61728,
      "byteLength": 1920,
      "target": 34962,
      "byteStride": 12
    },
    {
      "buffer": 0,
      "byteOffset": 63648,
      "byteLength": 960,
      "target": 34963
    },
    {
      "buffer": 0,
      "byteOffset": 64608,
      "byteLength": 1920,
      "target": 34962,
      "byteStride": 12
    },
    {
      "buffer": 0,
      "byteOffset": 66528,
      "byteLength": 1920,
      "target": 34962,
      "byteStride": 12
    },
    {
      "buffer": 0,
      "byteOffset": 68448,
      "byteLength": 960,
      "target": 34963
    },
    {
      "buffer": 0,
      "byteOffset": 69408,
      "byteLength": 3456,
      "target": 34962,
      "byteStride": 12
    },
    {
      "buffer": 0,
      "byteOffset": 72864,
      "byteLength": 3456,
      "target": 34962,
      "byteStride": 12
    },
    {
      "buffer": 0,
      "byteOffset": 76320,
      "byteLength": 1728,
      "target": 34963
    },
    {
      "buffer": 0,
      "byteOffset": 78048,
      "byteLength": 4224,
      "target": 34962,
      "byteStride": 12
    },
    {
      "buffer": 0,
      "byteOffset": 82272,
      "byteLength": 4224,
      "target": 34962,
      "byteStride": 12
    },
    {
      "buffer": 0,
      "byteOffset": 86496,
      "byteLength": 2112,
      "target": 34963
    },
    {
      "buffer": 0,
      "byteOffset": 88608,
      "byteLength": 2700,
      "target": 34962,
      "byteStride": 12
    },
    {
      "buffer": 0,
      "byteOffset": 91308,
      "byteLength": 2700,
      "target": 34962,
      "byteStride": 12
    },
    {
      "buffer": 0,
      "byteOffset": 94008,
      "byteLength": 1800,
      "target": 34962,
      "byteStride": 8
    },
    {
      "buffer": 0,
      "byteOffset": 95808,
      "byteLength": 2184,
      "target": 34963
    }
  ],
  "buffers": [
    {
      "byteLength": 97992,
      "uri": "data:application/octet-stream;base64,"
    }
  ],
  "accessors": [
    {
      "bufferView": 0,
      "componentType": 5126,
      "count": 225,
      "max": [
        13,
        13,
        4.874639511108398
      ],
      "min": [
        -13,
        -13,
        -4.874639511108398
      ],
      "type": "VEC3"
    },
    {
      "bufferView": 1,
      "componentType": 5126,
      "count": 225,
      "max": [
        1,
        1,
        0.9961689710617065
      ],
      "min": [
        -1,
        -1,
        -0.9961689710617065
      ],
      "type": "VEC3"
    },
    {
      "bufferView": 2,
      "componentType": 5126,
      "count": 225,
      "max": [
        1.0357142686843872,
        1
      ],
      "min": [
        -0.0357142873108387,
        0
      ],
      "type": "VEC2"
    },
    {
      "bufferView": 3,
      "componentType": 5123,
      "count": 1092,
      "max": [
        224
      ],
      "min": [
        0
      ],
      "type": "SCALAR"
    },
    {
      "bufferView": 4,
      "componentType": 5126,
      "count": 975,
      "max": [
        13,
        13,
        4.874639511108398
      ],
      "min": [
        -13,
        -13,
        -4.874639511108398
      ],
      "type": "VEC3"
    },
    {
      "bufferView": 5,
      "componentType": 5126,
      "count": 975,
      "max": [
        1,
        1,
        0.9961689710617065
      ],
      "min": [
        -1,
        -1,
        -0.9961689710617065
      ],
      "type": "VEC3"
    },
    {
      "bufferView": 6,
      "componentType": 5126,
      "count": 975,
      "max": [
        1.0357142686843872,
        1
      ],
      "min": [
        -0.0357142873108387,
        0
      ],
      "type": "VEC2"
    },
    {
      "bufferView": 7,
      "componentType": 5123,
      "count": 5292,
      "max": [
        974
      ],
      "min": [
        0
      ],
      "type": "SCALAR"
    },
    {
      "bufferView": 8,
      "componentType": 5126,
      "count": 288,
      "max": [
        23.37188148498535,
        2.8831090927124023,
        2.5
      ],
      "min": [
        -2.5,
        -9.997157096862793,
        -2.5
      ],
      "type": "VEC3"
    },
    {
      "bufferView": 9,
      "componentType": 5126,
      "count": 288,
      "max": [
        0.9861389398574829,
        0.9991744756698608,
        0.9999999403953552
      ],
      "min": [
        -0.9998766779899597,
        -0.9999762773513794,
        -0.9999999403953552
      ],
      "type": "VEC3"
    },
    {
      "bufferView": 10,
      "componentType": 5125,
      "count": 432,
      "max": [
        287
      ],
      "min": [
        0
      ],
      "type": "SCALAR"
    },
    {
      "bufferView": 11,
      "componentType": 5126,
      "count": 160,
      "max": [
        18.432905197143555,
        2.9092397689819336,
        2.5
      ],
      "min": [
        -2.5,
        -5.461084365844727,
        -2.5
      ],
      "type": "VEC3"
    },
    {
      "bufferView": 12,
      "componentType": 5126,
      "count": 160,
      "max": [
        0.8718176484107971,
        0.9974053502082825,
        0.9999988675117493
      ],
      "min": [
        -0.9999709129333496,
        -0.9973234534263611,
        -0.999998927116394
      ],
      "type": "VEC3"
    },
    {
      "bufferView": 13,
      "componentType": 5125,
      "count": 240,
      "max": [
        159
      ],
      "min": [
        0
      ],
      "type": "SCALAR"
    },
    {
      "bufferView": 14,
      "componentType": 5126,
      "count": 160,
      "max": [
        18.432905197143555,
        2.9092397689819336,
        2.5
      ],
      "min": [
        -2.5,
        -5.461084365844727,
        -2.5
      ],
      "type": "VEC3"
    },
    {
      "bufferView": 15,
      "componentType": 5126,
      "count": 160,
      "max": [
        0.8718176484107971,
        0.9974053502082825,
        0.9999988675117493
      ],
      "min": [
        -0.9999709129333496,
        -0.9973234534263611,
        -0.999998927116394
      ],
      "type": "VEC3"
    },
    {
      "bufferView": 16,
      "componentType": 5125,
      "count": 240,
      "max": [
        159
      ],
      "min": [
        0
      ],
      "type": "SCALAR"
    },
    {
      "bufferView": 17,
      "componentType": 5126,
      "count": 288,
      "max": [
        23.37188148498535,
        2.8831090927124023,
        2.5
      ],
      "min": [
        -2.5,
        -9.997157096862793,
        -2.5
      ],
      "type": "VEC3"
    },
    {
      "bufferView": 18,
      "componentType": 5126,
      "count": 288,
      "max": [
        0.9861389398574829,
        0.9991744756698608,
        0.9999999403953552
      ],
      "min": [
        -0.9998766779899597,
        -0.9999762773513794,
        -0.9999999403953552
      ],
      "type": "VEC3"
    },
    {
      "bufferView": 19,
      "componentType": 5125,
      "count": 432,
      "max": [
        287
      ],
      "min": [
        0
      ],
      "type": "SCALAR"
    },
    {
      "bufferView": 20,
      "componentType": 5126,
      "count": 352,
      "max": [
        13.54002571105957,
        6.4293999671936035,
        0.3853057026863098
      ],
      "min": [
        -13.778379440307617,
        -5.197022914886475,
        -6.309136390686035
      ],
      "type": "VEC3"
    },
    {
      "bufferView": 21,
      "componentType": 5126,
      "count": 352,
      "max": [
        0.977415919303894,
        0.9957952499389648,
        0.9684321880340576
      ],
      "min": [
        -0.9817440509796143,
        -0.9663063287734985,
        -0.9980182647705078
      ],
      "type": "VEC3"
    },
    {
      "bufferView": 22,
      "componentType": 5125,
      "count": 528,
      "max": [
        351
      ],
      "min": [
        0
      ],
      "type": "SCALAR"
    },
    {
      "bufferView": 23,
      "componentType": 5126,
      "count": 225,
      "max": [
        48,
        48,
        46.796539306640625
      ],
      "min": [
        -48,
        -48,
        -46.796539306640625
      ],
      "type": "VEC3"
    },
    {
      "bufferView": 24,
      "componentType": 5126,
      "count": 225,
      "max": [
        1,
        1,
        0.9749279022216797
      ],
      "min": [
        -1,
        -1,
        -0.9749279022216797
      ],
      "type": "VEC3"
    },
    {
      "bufferView": 25,
      "componentType": 5126,
      "count": 225,
      "max": [
        1.0357142686843872,
        1
      ],
      "min": [
        -0.0357142873108387,
        0
      ],
      "type": "VEC2"
    },
    {
      "bufferView": 26,
      "componentType": 5123,
      "count": 1092,
      "max": [
        224
      ],
      "min": [
        0
      ],
      "type": "SCALAR"
    }
  ],
  "meshes": [
    {
      "primitives": [
        {
          "mode": 4,
          "attributes": {
            "POSITION": 0,
            "NORMAL": 1,
            "TEXCOORD_0": 2
          },
          "extras": {
            "parameters": {
              "width": 26,
              "widthSegments": 14,
              "heightSegments": 14,
              "phiStart": 0,
              "phiLength": 6.283185307179586,
              "thetaStart": 0,
              "thetaLength": 180,
              "height": 26,
              "depth": 10,
              "type": "SphereGeometry"
            },
            "type": "SphereGeometry"
          },
          "indices": 3
        }
      ]
    },
    {
      "primitives": [
        {
          "mode": 4,
          "attributes": {
            "POSITION": 4,
            "NORMAL": 5,
            "TEXCOORD_0": 6
          },
          "extras": {
            "parameters": {
              "width": 26,
              "widthSegments": 14,
              "heightSegments": 64,
              "phiStart": 0,
              "phiLength": 6.283185307179586,
              "thetaStart": 0,
              "thetaLength": 180,
              "height": 26,
              "depth": 10,
              "type": "SphereGeometry"
            },
            "type": "SphereGeometry"
          },
          "indices": 7
        }
      ]
    },
    {
      "primitives": [
        {
          "mode": 4,
          "attributes": {
            "POSITION": 8,
            "NORMAL": 9
          },
          "extras": {
            "type": "SubdivGeometry",
            "parameters": {
              "width": 26.6729736328125,
              "height": 13.929918766021729,
              "depth": 5
            }
          },
          "indices": 10
        }
      ]
    },
    {
      "primitives": [
        {
          "mode": 4,
          "attributes": {
            "POSITION": 11,
            "NORMAL": 12
          },
          "extras": {
            "type": "SubdivGeometry",
            "parameters": {
              "width": 22.66982650756836,
              "height": 9.844971895217896,
              "depth": 5
            }
          },
          "indices": 13
        }
      ]
    },
    {
      "primitives": [
        {
          "mode": 4,
          "attributes": {
            "POSITION": 14,
            "NORMAL": 15
          },
          "extras": {
            "type": "SubdivGeometry",
            "parameters": {
              "width": 22.66982650756836,
              "height": 9.844971895217896,
              "depth": 5
            }
          },
          "indices": 16
        }
      ]
    },
    {
      "primitives": [
        {
          "mode": 4,
          "attributes": {
            "POSITION": 17,
            "NORMAL": 18
          },
          "extras": {
            "type": "SubdivGeometry",
            "parameters": {
              "width": 26.6729736328125,
              "height": 13.929918766021729,
              "depth": 5
            }
          },
          "indices": 19
        }
      ]
    },
    {
      "primitives": [
        {
          "mode": 4,
          "attributes": {
            "POSITION": 20,
            "NORMAL": 21
          },
          "extras": {
            "type": "SubdivGeometry",
            "parameters": {
              "width": 28.944165229797363,
              "height": 11.84997844696045,
              "depth": 8.01650458574295
            }
          },
          "indices": 22
        }
      ]
    },
    {
      "primitives": [
        {
          "mode": 4,
          "attributes": {
            "POSITION": 23,
            "NORMAL": 24,
            "TEXCOORD_0": 25
          },
          "extras": {
            "parameters": {
              "width": 96,
              "widthSegments": 14,
              "heightSegments": 14,
              "phiStart": 0,
              "phiLength": 6.283185307179586,
              "thetaStart": 0,
              "thetaLength": 180,
              "height": 96,
              "depth": 96,
              "type": "SphereGeometry"
            },
            "type": "SphereGeometry"
          },
          "indices": 26
        }
      ]
    }
  ],
  "extensions": {
    "KHR_lights_punctual": {
      "lights": [
        {
          "name": "Directional Light",
          "color": [
            1,
            1,
            1
          ],
          "intensity": 0.7,
          "type": "directional"
        }
      ]
    }
  },
  "cameras": [
    {
      "type": "perspective",
      "perspective": {
        "aspectRatio": 1.1393805309734513,
        "yfov": 0.7853981633974483,
        "zfar": 100000,
        "znear": 70
      },
      "name": "Camera"
    },
    {
      "type": "perspective",
      "perspective": {
        "aspectRatio": 1.1393805309734513,
        "yfov": 0.7853981633974483,
        "zfar": 100000,
        "znear": 5
      }
    }
  ],
  "extensionsUsed": [
    "KHR_lights_punctual"
  ]
}