{
  "asset": {
    "version": "2.0",
    "generator": "THREE.GLTFExporter"
  },
  "scenes": [
    {
      "nodes": [
        0
      ]
    }
  ],
  "scene": 0,
  "nodes": [
    {
      "children": [
        12
      ],
      "matrix": [
        0.01,
        0,
        0,
        0,
        0,
        0.01,
        0,
        0,
        0,
        0,
        0.01,
        0,
        0,
        0,
        0,
        1
      ]
    },
    {
      "matrix": [
        1,
        0,
        0,
        0,
        0,
        1,
        -5.656662818487294e-17,
        0,
        0,
        5.656662818487294e-17,
        1,
        0,
        33.408616721349716,
        98.48121036934015,
        1525.290549610947,
        1
      ],
      "name": "Camera",
      "camera": 0
    },
    {
      "matrix": [
        0.4414703047712616,
        0.5446834605883715,
        0.11829161164578121,
        0,
        -0.5261238217348111,
        0.45704369088806635,
        -0.14097445315261878,
        0,
        -0.1840290787550599,
        -2.446805154538841e-18,
        0.686805871983979,
        0,
        -22.771012727993813,
        12.220473025938395,
        19.784754649623984,
        0.9999999999999998
      ],
      "name": "Cube 3",
      "mesh": 0
    },
    {
      "matrix": [
        0.6867073742215632,
        0.012041645296439854,
        -0.18400268635916484,
        0,
        -0.011631336182843515,
        0.710931787443536,
        0.00311660713708782,
        0,
        0.18402907875505986,
        3.0596378225588613e-18,
        0.6868058719839787,
        0,
        5.94899470522229,
        14.151133161423163,
        27.890871325646998,
        1.0000000000000002
      ],
      "name": "Cube 2",
      "mesh": 1
    },
    {
      "matrix": [
        0.7110337598307902,
        0,
        0,
        0,
        0,
        0.7083280617076725,
        -0.06197067545671257,
        0,
        0,
        0.0619706754567125,
        0.7083280617076735,
        0,
        -12.479702291495219,
        3.1761368842705546,
        30.148809247218015,
        0.9999999999999997
      ],
      "name": "Cube",
      "mesh": 2
    },
    {
      "matrix": [
        -0.676406812348268,
        -0.03057802410735064,
        0.2170433511300132,
        0,
        -0.001500427455029949,
        -0.7034181953238746,
        -0.10377667764946596,
        0,
        0.21918161543683162,
        -0.09918081744065885,
        0.6690975956655443,
        0,
        11.10800363506058,
        3.123314618768086,
        32.933799913986896,
        1
      ],
      "name": "Cube 4",
      "mesh": 3
    },
    {
      "matrix": [
        0.7110337598307902,
        0,
        0,
        0,
        0,
        0.7110337598307902,
        0,
        0,
        0,
        0,
        0.7110337598307912,
        0,
        -0.29988419883138207,
        -15.776832346175132,
        31.434461247037238,
        1
      ],
      "name": "Cube 3",
      "mesh": 4
    },
    {
      "matrix": [
        0.7110337598307902,
        0,
        0,
        0,
        0,
        0.7110337598307902,
        0,
        0,
        0,
        0,
        0.7110337598307912,
        0,
        3.552713678800501e-15,
        0,
        -1.6516404361962458,
        1
      ],
      "name": "Sphere",
      "mesh": 5
    },
    {
      "name": "Emoji People",
      "children": [
        2,
        3,
        4,
        5,
        6,
        7
      ]
    },
    {
      "matrix": [
        0.2499977750007752,
        -0.3327859856688483,
        -0.9092604688630618,
        0,
        0.799528912318497,
        0.6006276037336289,
        0,
        0,
        0.5461269365829367,
        -0.7269800336842904,
        0.41622758169410773,
        0,
        0,
        0,
        0,
        1
      ],
      "name": "Directional Light",
      "extensions": {
        "KHR_lights_punctual": {
          "light": 0
        }
      }
    },
    {
      "matrix": [
        0.7071067811865477,
        0,
        -0.7071067811865472,
        0,
        -0.40824829046386296,
        0.816496580927726,
        -0.40824829046386313,
        0,
        0.5773502691896255,
        0.5773502691896258,
        0.5773502691896258,
        0,
        739.853100405729,
        680.2144909202873,
        698.9995029044065,
        1
      ],
      "camera": 1
    },
    {
      "matrix": [
        1,
        0,
        0,
        0,
        0,
        1,
        0,
        0,
        0,
        0,
        1,
        0,
        0,
        1,
        0,
        1
      ],
      "name": "Default Ambient Light"
    },
    {
      "name": "Scene",
      "children": [
        1,
        8,
        9,
        10,
        11
      ]
    }
  ],
  "cameras": [
    {
      "type": "perspective",
      "perspective": {
        "aspectRatio": 1.1393805309734513,
        "yfov": 0.7853981633974483,
        "zfar": 100000,
        "znear": 70
      },
      "name": "Camera"
    },
    {
      "type": "perspective",
      "perspective": {
        "aspectRatio": 1.1393805309734513,
        "yfov": 0.7853981633974483,
        "zfar": 100000,
        "znear": 5
      }
    }
  ],
  "bufferViews": [
    {
      "buffer": 0,
      "byteOffset": 0,
      "byteLength": 3456,
      "target": 34962,
      "byteStride": 12
    },
    {
      "buffer": 0,
      "byteOffset": 3456,
      "byteLength": 3456,
      "target": 34962,
      "byteStride": 12
    },
    {
      "buffer": 0,
      "byteOffset": 6912,
      "byteLength": 1728,
      "target": 34963
    },
    {
      "buffer": 0,
      "byteOffset": 8640,
      "byteLength": 3456,
      "target": 34962,
      "byteStride": 12
    },
    {
      "buffer": 0,
      "byteOffset": 12096,
      "byteLength": 3456,
      "target": 34962,
      "byteStride": 12
    },
    {
      "buffer": 0,
      "byteOffset": 15552,
      "byteLength": 1728,
      "target": 34963
    },
    {
      "buffer": 0,
      "byteOffset": 17280,
      "byteLength": 2688,
      "target": 34962,
      "byteStride": 12
    },
    {
      "buffer": 0,
      "byteOffset": 19968,
      "byteLength": 2688,
      "target": 34962,
      "byteStride": 12
    },
    {
      "buffer": 0,
      "byteOffset": 22656,
      "byteLength": 1344,
      "target": 34963
    },
    {
      "buffer": 0,
      "byteOffset": 24000,
      "byteLength": 4224,
      "target": 34962,
      "byteStride": 12
    },
    {
      "buffer": 0,
      "byteOffset": 28224,
      "byteLength": 4224,
      "target": 34962,
      "byteStride": 12
    },
    {
      "buffer": 0,
      "byteOffset": 32448,
      "byteLength": 2112,
      "target": 34963
    },
    {
      "buffer": 0,
      "byteOffset": 34560,
      "byteLength": 4224,
      "target": 34962,
      "byteStride": 12
    },
    {
      "buffer": 0,
      "byteOffset": 38784,
      "byteLength": 4224,
      "target": 34962,
      "byteStride": 12
    },
    {
      "buffer": 0,
      "byteOffset": 43008,
      "byteLength": 2112,
      "target": 34963
    },
    {
      "buffer": 0,
      "byteOffset": 45120,
      "byteLength": 3468,
      "target": 34962,
      "byteStride": 12
    },
    {
      "buffer": 0,
      "byteOffset": 48588,
      "byteLength": 3468,
      "target": 34962,
      "byteStride": 12
    },
    {
      "buffer": 0,
      "byteOffset": 52056,
      "byteLength": 2312,
      "target": 34962,
      "byteStride": 8
    },
    {
      "buffer": 0,
      "byteOffset": 54368,
      "byteLength": 2880,
      "target": 34963
    }
  ],
  "buffers": [
    {
      "byteLength": 57248,
      "uri": "data:application/octet-stream;base64,"
    }
  ],
  "accessors": [
    {
      "bufferView": 0,
      "componentType": 5126,
      "count": 288,
      "max": [
        23.37188148498535,
        2.8831090927124023,
        2.5
      ],
      "min": [
        -2.5,
        -9.997157096862793,
        -2.5
      ],
      "type": "VEC3"
    },
    {
      "bufferView": 1,
      "componentType": 5126,
      "count": 288,
      "max": [
        0.9861389398574829,
        0.9991744756698608,
        0.9999999403953552
      ],
      "min": [
        -0.9998766779899597,
        -0.9999762773513794,
        -0.9999999403953552
      ],
      "type": "VEC3"
    },
    {
      "bufferView": 2,
      "componentType": 5125,
      "count": 432,
      "max": [
        287
      ],
      "min": [
        0
      ],
      "type": "SCALAR"
    },
    {
      "bufferView": 3,
      "componentType": 5126,
      "count": 288,
      "max": [
        23.37188148498535,
        2.8831090927124023,
        2.5
      ],
      "min": [
        -2.5,
        -9.997157096862793,
        -2.5
      ],
      "type": "VEC3"
    },
    {
      "bufferView": 4,
      "componentType": 5126,
      "count": 288,
      "max": [
        0.9861389398574829,
        0.9991744756698608,
        0.9999999403953552
      ],
      "min": [
        -0.9998766779899597,
        -0.9999762773513794,
        -0.9999999403953552
      ],
      "type": "VEC3"
    },
    {
      "bufferView": 5,
      "componentType": 5125,
      "count": 432,
      "max": [
        287
      ],
      "min": [
        0
      ],
      "type": "SCALAR"
    },
    {
      "bufferView": 6,
      "componentType": 5126,
      "count": 224,
      "max": [
        7.0199995040893555,
        9.036303520202637,
        3.0999999046325684
      ],
      "min": [
        -7.0199995040893555,
        -9.036304473876953,
        -3.0999999046325684
      ],
      "type": "VEC3"
    },
    {
      "bufferView": 7,
      "componentType": 5126,
      "count": 224,
      "max": [
        0.9999939203262329,
        1,
        0.9999988079071045
      ],
      "min": [
        -0.9999939203262329,
        -1,
        -0.9999988079071045
      ],
      "type": "VEC3"
    },
    {
      "bufferView": 8,
      "componentType": 5125,
      "count": 336,
      "max": [
        223
      ],
      "min": [
        0
      ],
      "type": "SCALAR"
    },
    {
      "bufferView": 9,
      "componentType": 5126,
      "count": 352,
      "max": [
        11.228313446044922,
        5.331697463989258,
        -0.8227280974388123
      ],
      "min": [
        -11.425971984863281,
        -4.309726238250732,
        -4.507898330688477
      ],
      "type": "VEC3"
    },
    {
      "bufferView": 10,
      "componentType": 5126,
      "count": 352,
      "max": [
        0.9856845736503601,
        0.9974377751350403,
        0.97645503282547
      ],
      "min": [
        -0.9899975657463074,
        -0.9943682551383972,
        -0.990956723690033
      ],
      "type": "VEC3"
    },
    {
      "bufferView": 11,
      "componentType": 5125,
      "count": 528,
      "max": [
        351
      ],
      "min": [
        0
      ],
      "type": "SCALAR"
    },
    {
      "bufferView": 12,
      "componentType": 5126,
      "count": 352,
      "max": [
        13.54002571105957,
        6.4293999671936035,
        0.3853057026863098
      ],
      "min": [
        -13.778379440307617,
        -5.197022914886475,
        -6.309136390686035
      ],
      "type": "VEC3"
    },
    {
      "bufferView": 13,
      "componentType": 5126,
      "count": 352,
      "max": [
        0.977415919303894,
        0.9957952499389648,
        0.9684321880340576
      ],
      "min": [
        -0.9817440509796143,
        -0.9663063287734985,
        -0.9980182647705078
      ],
      "type": "VEC3"
    },
    {
      "bufferView": 14,
      "componentType": 5125,
      "count": 528,
      "max": [
        351
      ],
      "min": [
        0
      ],
      "type": "SCALAR"
    },
    {
      "bufferView": 15,
      "componentType": 5126,
      "count": 289,
      "max": [
        48,
        48,
        48
      ],
      "min": [
        -48,
        -48,
        -48
      ],
      "type": "VEC3"
    },
    {
      "bufferView": 16,
      "componentType": 5126,
      "count": 289,
      "max": [
        1,
        1,
        1
      ],
      "min": [
        -1,
        -1,
        -1
      ],
      "type": "VEC3"
    },
    {
      "bufferView": 17,
      "componentType": 5126,
      "count": 289,
      "max": [
        1.03125,
        1
      ],
      "min": [
        -0.03125,
        0
      ],
      "type": "VEC2"
    },
    {
      "bufferView": 18,
      "componentType": 5123,
      "count": 1440,
      "max": [
        288
      ],
      "min": [
        0
      ],
      "type": "SCALAR"
    }
  ],
  "meshes": [
    {
      "primitives": [
        {
          "mode": 4,
          "attributes": {
            "POSITION": 0,
            "NORMAL": 1
          },
          "extras": {
            "type": "SubdivGeometry",
            "parameters": {
              "width": 26.6729736328125,
              "height": 13.929918766021729,
              "depth": 5
            }
          },
          "indices": 2
        }
      ]
    },
    {
      "primitives": [
        {
          "mode": 4,
          "attributes": {
            "POSITION": 3,
            "NORMAL": 4
          },
          "extras": {
            "type": "SubdivGeometry",
            "parameters": {
              "width": 26.6729736328125,
              "height": 13.929918766021729,
              "depth": 5
            }
          },
          "indices": 5
        }
      ]
    },
    {
      "primitives": [
        {
          "mode": 4,
          "attributes": {
            "POSITION": 6,
            "NORMAL": 7
          },
          "extras": {
            "type": "SubdivGeometry",
            "parameters": {
              "width": 14.039999008178711,
              "height": 18.07260799407959,
              "depth": 6.199999809265137
            }
          },
          "indices": 8
        }
      ]
    },
    {
      "primitives": [
        {
          "mode": 4,
          "attributes": {
            "POSITION": 9,
            "NORMAL": 10
          },
          "extras": {
            "type": "SubdivGeometry",
            "parameters": {
              "width": 24.002477645874023,
              "height": 9.82681131362915,
              "depth": 4.667141616344452
            }
          },
          "indices": 11
        }
      ]
    },
    {
      "primitives": [
        {
          "mode": 4,
          "attributes": {
            "POSITION": 12,
            "NORMAL": 13
          },
          "extras": {
            "type": "SubdivGeometry",
            "parameters": {
              "width": 28.944165229797363,
              "height": 11.84997844696045,
              "depth": 8.01650458574295
            }
          },
          "indices": 14
        }
      ]
    },
    {
      "primitives": [
        {
          "mode": 4,
          "attributes": {
            "POSITION": 15,
            "NORMAL": 16,
            "TEXCOORD_0": 17
          },
          "extras": {
            "parameters": {
              "width": 96,
              "widthSegments": 16,
              "heightSegments": 16,
              "phiStart": 0,
              "phiLength": 6.283185307179586,
              "thetaStart": 0,
              "thetaLength": 180,
              "height": 96,
              "depth": 96,
              "type": "SphereGeometry"
            },
            "type": "SphereGeometry"
          },
          "indices": 18
        }
      ]
    }
  ],
  "extensions": {
    "KHR_lights_punctual": {
      "lights": [
        {
          "name": "Directional Light",
          "color": [
            1,
            1,
            1
          ],
          "intensity": 0.7,
          "type": "directional"
        }
      ]
    }
  },
  "extensionsUsed": [
    "KHR_lights_punctual"
  ]
}